<svg width="15" height="14" viewBox="0 0 15 14" fill="none" xmlns="http://www.w3.org/2000/svg">
<path fill-rule="evenodd" clip-rule="evenodd" d="M0.995333 0V1.99067H0V2.986H0.995333V13.9347H1.99067V2.986H5.972V4.97667H4.479C4.34701 4.97667 4.22043 5.0291 4.1271 5.12243C4.03377 5.21576 3.98133 5.34234 3.98133 5.47433V11.4463C3.98133 11.5783 4.03377 11.7049 4.1271 11.7982C4.22043 11.8916 4.34701 11.944 4.479 11.944H14.4323C14.5643 11.944 14.6909 11.8916 14.7842 11.7982C14.8776 11.7049 14.93 11.5783 14.93 11.4463V5.47433C14.93 5.34234 14.8776 5.21576 14.7842 5.12243C14.6909 5.0291 14.5643 4.97667 14.4323 4.97667H12.9393V2.986H14.93V1.99067H1.99067V0H0.995333ZM6.96733 4.97667V2.986H11.944V4.97667H6.96733Z" fill="#00418D"/>
</svg>
